ffmpeg started on 2025-05-12 at 20:52:30
Report written to "D:\Convert\FFMetrics\reports\psnr_report-6.txt"
Log level: 32
Command line:
ffmpeg -hide_banner -nostdin -i "G:\\\xc0\xed\xe8\xec\xe5\\\xce\xed\xe3\xee\xe8\xed\xe3\xe8\\!_35_\xcb\xe5\xf2\xee_2024\\DreamCast-1\\\xcf\xf0\xe8\xea\xeb\xfe\xf7\xe5\xed\xe8\xff \xe2 \xe4\xf0\xf3\xe3\xee\xec \xec\xe8\xf0\xe5 - \xc2\xee\xf1\xef\xe8\xf2\xfb\xe2\xe0\xf2\xfc \xe4\xe5\xf2\xe5\xe9 \xe1\xf3\xe4\xf3\xf7\xe8 \xe0\xe2\xe0\xed\xf2\xfe\xf0\xe8\xf1\xf2\xee\xec\\[DC] Iseyuru - 08_Telegram_HEVC.mkv" -i "G:\\\xc0\xed\xe8\xec\xe5\\\xce\xed\xe3\xee\xe8\xed\xe3\xe8\\!_35_\xcb\xe5\xf2\xee_2024\\DreamCast-1\\\xcf\xf0\xe8\xea\xeb\xfe\xf7\xe5\xed\xe8\xff \xe2 \xe4\xf0\xf3\xe3\xee\xec \xec\xe8\xf0\xe5 - \xc2\xee\xf1\xef\xe8\xf2\xfb\xe2\xe0\xf2\xfc \xe4\xe5\xf2\xe5\xe9 \xe1\xf3\xe4\xf3\xf7\xe8 \xe0\xe2\xe0\xed\xf2\xfe\xf0\xe8\xf1\xf2\xee\xec\\[DC] Iseyuru - 08_Telegram.mp4" -lavfi "[0:v]settb=AVTB,setpts=PTS-STARTPTS,format=pix_fmts=yuv420p10,fps=24000/1001,scale=1920:1080:flags=bicubic[main];[1:v]settb=AVTB,setpts=PTS-STARTPTS,format=pix_fmts=yuv420p,fps=24000/1001,scale=1920:1080:flags=bicubic[ref];[main][ref]psnr=eof_action=endall:stats_file='D\\:/Convert/FFMetrics/logs/psnr_logfile-6.txt'" -f null -
Input #0, matroska,webm, from 'G:\Аниме\Онгоинги\!_35_Лето_2024\DreamCast-1\Приключения в другом мире - Воспитывать детей будучи авантюристом\[DC] Iseyuru - 08_Telegram_HEVC.mkv':
  Metadata:
    COMPATIBLE_BRANDS: isomiso2avc1mp41
    MAJOR_BRAND     : isom
    MINOR_VERSION   : 512
    ENCODER         : Lavf61.7.100
  Duration: 00:23:56.59, start: -0.021000, bitrate: 930 kb/s
  Stream #0:0: Video: hevc (Main 10), yuv420p10le(tv, bt709, progressive), 1920x1080 [SAR 1:1 DAR 16:9], 23.98 fps, 23.98 tbr, 1k tbn (default)
      Metadata:
        HANDLER_NAME    : VideoHandler
        VENDOR_ID       : [0][0][0][0]
        ENCODER         : Lavc61.19.100 libx265
        BPS             : 732278
        DURATION        : 00:23:56.476708333
        NUMBER_OF_FRAMES: 34441
        NUMBER_OF_BYTES : 131487629
        _STATISTICS_WRITING_APP: mkvpropedit v66.0.0 ('Josie') 64-bit
        _STATISTICS_WRITING_DATE_UTC: 2025-05-10 13:53:35
        _STATISTICS_TAGS: BPS DURATION NUMBER_OF_FRAMES NUMBER_OF_BYTES
  Stream #0:1: Audio: aac (LC), 48000 Hz, stereo, fltp (default)
      Metadata:
        HANDLER_NAME    : SoundHandler
        VENDOR_ID       : [0][0][0][0]
        ENCODER         : Lavc61.19.100 aac
        BPS             : 193762
        DURATION        : 00:23:56.586000000
        NUMBER_OF_FRAMES: 67341
        NUMBER_OF_BYTES : 34794530
        _STATISTICS_WRITING_APP: mkvpropedit v66.0.0 ('Josie') 64-bit
        _STATISTICS_WRITING_DATE_UTC: 2025-05-10 13:53:35
        _STATISTICS_TAGS: BPS DURATION NUMBER_OF_FRAMES NUMBER_OF_BYTES
Input #1, mov,mp4,m4a,3gp,3g2,mj2, from 'G:\Аниме\Онгоинги\!_35_Лето_2024\DreamCast-1\Приключения в другом мире - Воспитывать детей будучи авантюристом\[DC] Iseyuru - 08_Telegram.mp4':
  Metadata:
    major_brand     : isom
    minor_version   : 512
    compatible_brands: isomiso2avc1mp41
    encoder         : Lavf60.16.100
  Duration: 00:23:56.54, start: 0.000000, bitrate: 3641 kb/s
  Stream #1:0[0x1](und): Video: h264 (High) (avc1 / 0x31637661), yuv420p(tv, bt709, progressive), 1920x1080 [SAR 1:1 DAR 16:9], 3493 kb/s, 23.98 fps, 23.98 tbr, 24k tbn (default)
      Metadata:
        handler_name    : VideoHandler
        vendor_id       : [0][0][0][0]
        encoder         : Lavc60.31.102 h264_qsv
  Stream #1:1[0x2](und): Audio: aac (HE-AACv2) (mp4a / 0x6134706D), 48000 Hz, stereo, fltp, 144 kb/s (default)
      Metadata:
        handler_name    : SoundHandler
        vendor_id       : [0][0][0][0]
Stream mapping:
  Stream #0:0 (hevc) -> settb:default
  Stream #1:0 (h264) -> settb:default
  psnr:default -> Stream #0:0 (wrapped_avframe)
  Stream #0:1 -> #0:1 (aac (native) -> pcm_s16le (native))
Output #0, null, to 'pipe:':
  Metadata:
    COMPATIBLE_BRANDS: isomiso2avc1mp41
    MAJOR_BRAND     : isom
    MINOR_VERSION   : 512
    encoder         : Lavf61.7.100
  Stream #0:0: Video: wrapped_avframe, yuv420p10le(tv, bt709, progressive), 1920x1080 [SAR 1:1 DAR 16:9], q=2-31, 200 kb/s, 23.98 fps, 23.98 tbn
      Metadata:
        encoder         : Lavc61.19.100 wrapped_avframe
  Stream #0:1: Audio: pcm_s16le, 48000 Hz, stereo, s16, 1536 kb/s (default)
      Metadata:
        HANDLER_NAME    : SoundHandler
        VENDOR_ID       : [0][0][0][0]
        _STATISTICS_TAGS: BPS DURATION NUMBER_OF_FRAMES NUMBER_OF_BYTES
        BPS             : 193762
        DURATION        : 00:23:56.586000000
        NUMBER_OF_FRAMES: 67341
        NUMBER_OF_BYTES : 34794530
        _STATISTICS_WRITING_APP: mkvpropedit v66.0.0 ('Josie') 64-bit
        _STATISTICS_WRITING_DATE_UTC: 2025-05-10 13:53:35
        encoder         : Lavc61.19.100 pcm_s16le
frame=  162 fps=0.0 q=-0.0 size=N/A time=00:00:06.75 bitrate=N/A speed=13.1x    frame=  393 fps=378 q=-0.0 size=N/A time=00:00:16.39 bitrate=N/A speed=15.8x    frame=  635 fps=410 q=-0.0 size=N/A time=00:00:26.48 bitrate=N/A speed=17.1x    frame=  871 fps=421 q=-0.0 size=N/A time=00:00:36.32 bitrate=N/A speed=17.6x    frame= 1119 fps=434 q=-0.0 size=N/A time=00:00:46.67 bitrate=N/A speed=18.1x    frame= 1367 fps=443 q=-0.0 size=N/A time=00:00:57.01 bitrate=N/A speed=18.5x    frame= 1607 fps=446 q=-0.0 size=N/A time=00:01:07.02 bitrate=N/A speed=18.6x    frame= 1862 fps=451 q=-0.0 size=N/A time=00:01:17.66 bitrate=N/A speed=18.8x    frame= 2112 fps=455 q=-0.0 size=N/A time=00:01:28.08 bitrate=N/A speed=  19x    frame= 2338 fps=453 q=-0.0 size=N/A time=00:01:37.51 bitrate=N/A speed=18.9x    frame= 2552 fps=451 q=-0.0 size=N/A time=00:01:46.43 bitrate=N/A speed=18.8x    frame= 2771 fps=447 q=-0.0 size=N/A time=00:01:55.57 bitrate=N/A speed=18.7x    frame= 2981 fps=444 q=-0.0 size=N/A time=00:02:04.33 bitrate=N/A speed=18.5x    frame= 3125 fps=433 q=-0.0 size=N/A time=00:02:10.33 bitrate=N/A speed=  18x    frame= 3257 fps=421 q=-0.0 size=N/A time=00:02:15.84 bitrate=N/A speed=17.6x    frame= 3466 fps=420 q=-0.0 size=N/A time=00:02:24.56 bitrate=N/A speed=17.5x    frame= 3687 fps=421 q=-0.0 size=N/A time=00:02:33.77 bitrate=N/A speed=17.5x    frame= 3873 fps=417 q=-0.0 size=N/A time=00:02:41.53 bitrate=N/A speed=17.4x    frame= 4087 fps=417 q=-0.0 size=N/A time=00:02:50.46 bitrate=N/A speed=17.4x    frame= 4278 fps=415 q=-0.0 size=N/A time=00:02:58.42 bitrate=N/A speed=17.3x    frame= 4500 fps=415 q=-0.0 size=N/A time=00:03:07.68 bitrate=N/A speed=17.3x    frame= 4699 fps=414 q=-0.0 size=N/A time=00:03:16.02 bitrate=N/A speed=17.3x    frame= 4927 fps=415 q=-0.0 size=N/A time=00:03:25.49 bitrate=N/A speed=17.3x    frame= 5136 fps=415 q=-0.0 size=N/A time=00:03:34.21 bitrate=N/A speed=17.3x    frame= 5372 fps=416 q=-0.0 size=N/A time=00:03:44.05 bitrate=N/A speed=17.4x    frame= 5604 fps=417 q=-0.0 size=N/A time=00:03:53.73 bitrate=N/A speed=17.4x    frame= 5820 fps=417 q=-0.0 size=N/A time=00:04:02.74 bitrate=N/A speed=17.4x    frame= 6058 fps=419 q=-0.0 size=N/A time=00:04:12.66 bitrate=N/A speed=17.5x    frame= 6287 fps=420 q=-0.0 size=N/A time=00:04:22.22 bitrate=N/A speed=17.5x    frame= 6519 fps=421 q=-0.0 size=N/A time=00:04:31.89 bitrate=N/A speed=17.6x    frame= 6761 fps=422 q=-0.0 size=N/A time=00:04:41.99 bitrate=N/A speed=17.6x    frame= 6998 fps=424 q=-0.0 size=N/A time=00:04:51.87 bitrate=N/A speed=17.7x    frame= 7248 fps=425 q=-0.0 size=N/A time=00:05:02.30 bitrate=N/A speed=17.7x    frame= 7468 fps=425 q=-0.0 size=N/A time=00:05:11.47 bitrate=N/A speed=17.7x    frame= 7708 fps=426 q=-0.0 size=N/A time=00:05:21.48 bitrate=N/A speed=17.8x    frame= 7969 fps=428 q=-0.0 size=N/A time=00:05:32.37 bitrate=N/A speed=17.9x    frame= 8168 fps=428 q=-0.0 size=N/A time=00:05:40.67 bitrate=N/A speed=17.8x    frame= 8403 fps=428 q=-0.0 size=N/A time=00:05:50.47 bitrate=N/A speed=17.9x    frame= 8619 fps=428 q=-0.0 size=N/A time=00:05:59.48 bitrate=N/A speed=17.8x    frame= 8854 fps=429 q=-0.0 size=N/A time=00:06:09.28 bitrate=N/A speed=17.9x    frame= 9103 fps=430 q=-0.0 size=N/A time=00:06:19.67 bitrate=N/A speed=17.9x    frame= 9347 fps=431 q=-0.0 size=N/A time=00:06:29.84 bitrate=N/A speed=  18x    frame= 9588 fps=432 q=-0.0 size=N/A time=00:06:39.89 bitrate=N/A speed=  18x    frame= 9824 fps=432 q=-0.0 size=N/A time=00:06:49.74 bitrate=N/A speed=  18x    frame=10084 fps=434 q=-0.0 size=N/A time=00:07:00.58 bitrate=N/A speed=18.1x    frame=10353 fps=436 q=-0.0 size=N/A time=00:07:11.80 bitrate=N/A speed=18.2x    frame=10581 fps=436 q=-0.0 size=N/A time=00:07:21.31 bitrate=N/A speed=18.2x    frame=10812 fps=436 q=-0.0 size=N/A time=00:07:30.95 bitrate=N/A speed=18.2x    frame=11063 fps=437 q=-0.0 size=N/A time=00:07:41.41 bitrate=N/A speed=18.2x    frame=11291 fps=437 q=-0.0 size=N/A time=00:07:50.92 bitrate=N/A speed=18.2x    frame=11551 fps=439 q=-0.0 size=N/A time=00:08:01.77 bitrate=N/A speed=18.3x    frame=11780 fps=439 q=-0.0 size=N/A time=00:08:11.32 bitrate=N/A speed=18.3x    frame=12009 fps=439 q=-0.0 size=N/A time=00:08:20.87 bitrate=N/A speed=18.3x    frame=12251 fps=439 q=-0.0 size=N/A time=00:08:30.96 bitrate=N/A speed=18.3x    frame=12483 fps=440 q=-0.0 size=N/A time=00:08:40.64 bitrate=N/A speed=18.3x    frame=12707 fps=439 q=-0.0 size=N/A time=00:08:49.98 bitrate=N/A speed=18.3x    frame=12894 fps=438 q=-0.0 size=N/A time=00:08:57.78 bitrate=N/A speed=18.3x    frame=13129 fps=439 q=-0.0 size=N/A time=00:09:07.58 bitrate=N/A speed=18.3x    frame=13331 fps=438 q=-0.0 size=N/A time=00:09:16.01 bitrate=N/A speed=18.3x    frame=13579 fps=438 q=-0.0 size=N/A time=00:09:26.35 bitrate=N/A speed=18.3x    frame=13849 fps=440 q=-0.0 size=N/A time=00:09:37.61 bitrate=N/A speed=18.3x    frame=14096 fps=441 q=-0.0 size=N/A time=00:09:47.92 bitrate=N/A speed=18.4x    frame=14341 fps=441 q=-0.0 size=N/A time=00:09:58.13 bitrate=N/A speed=18.4x    frame=14560 fps=441 q=-0.0 size=N/A time=00:10:07.27 bitrate=N/A speed=18.4x    frame=14798 fps=441 q=-0.0 size=N/A time=00:10:17.19 bitrate=N/A speed=18.4x    frame=15044 fps=442 q=-0.0 size=N/A time=00:10:27.46 bitrate=N/A speed=18.4x    frame=15304 fps=443 q=-0.0 size=N/A time=00:10:38.30 bitrate=N/A speed=18.5x    frame=15549 fps=443 q=-0.0 size=N/A time=00:10:48.52 bitrate=N/A speed=18.5x    frame=15789 fps=443 q=-0.0 size=N/A time=00:10:58.53 bitrate=N/A speed=18.5x    frame=16021 fps=443 q=-0.0 size=N/A time=00:11:08.20 bitrate=N/A speed=18.5x    frame=16242 fps=443 q=-0.0 size=N/A time=00:11:17.42 bitrate=N/A speed=18.5x    frame=16432 fps=442 q=-0.0 size=N/A time=00:11:25.35 bitrate=N/A speed=18.4x    frame=16581 fps=440 q=-0.0 size=N/A time=00:11:31.56 bitrate=N/A speed=18.4x    frame=16789 fps=440 q=-0.0 size=N/A time=00:11:40.24 bitrate=N/A speed=18.3x    frame=17020 fps=440 q=-0.0 size=N/A time=00:11:49.87 bitrate=N/A speed=18.3x    frame=17270 fps=440 q=-0.0 size=N/A time=00:12:00.30 bitrate=N/A speed=18.4x    frame=17509 fps=441 q=-0.0 size=N/A time=00:12:10.27 bitrate=N/A speed=18.4x    frame=17734 fps=441 q=-0.0 size=N/A time=00:12:19.65 bitrate=N/A speed=18.4x    frame=17959 fps=440 q=-0.0 size=N/A time=00:12:29.03 bitrate=N/A speed=18.4x    frame=18176 fps=440 q=-0.0 size=N/A time=00:12:38.09 bitrate=N/A speed=18.4x    frame=18402 fps=440 q=-0.0 size=N/A time=00:12:47.51 bitrate=N/A speed=18.4x    frame=18623 fps=440 q=-0.0 size=N/A time=00:12:56.73 bitrate=N/A speed=18.3x    frame=18861 fps=440 q=-0.0 size=N/A time=00:13:06.66 bitrate=N/A speed=18.4x    frame=19101 fps=440 q=-0.0 size=N/A time=00:13:16.67 bitrate=N/A speed=18.4x    frame=19334 fps=441 q=-0.0 size=N/A time=00:13:26.38 bitrate=N/A speed=18.4x    frame=19591 fps=441 q=-0.0 size=N/A time=00:13:37.10 bitrate=N/A speed=18.4x    frame=19828 fps=442 q=-0.0 size=N/A time=00:13:46.99 bitrate=N/A speed=18.4x    frame=20084 fps=442 q=-0.0 size=N/A time=00:13:57.67 bitrate=N/A speed=18.4x    frame=20333 fps=443 q=-0.0 size=N/A time=00:14:08.05 bitrate=N/A speed=18.5x    frame=20554 fps=443 q=-0.0 size=N/A time=00:14:17.27 bitrate=N/A speed=18.5x    frame=20773 fps=442 q=-0.0 size=N/A time=00:14:26.40 bitrate=N/A speed=18.4x    frame=21023 fps=443 q=-0.0 size=N/A time=00:14:36.83 bitrate=N/A speed=18.5x    frame=21267 fps=443 q=-0.0 size=N/A time=00:14:47.01 bitrate=N/A speed=18.5x    frame=21499 fps=443 q=-0.0 size=N/A time=00:14:56.68 bitrate=N/A speed=18.5x    frame=21724 fps=443 q=-0.0 size=N/A time=00:15:06.07 bitrate=N/A speed=18.5x    frame=21952 fps=443 q=-0.0 size=N/A time=00:15:15.58 bitrate=N/A speed=18.5x    frame=22202 fps=444 q=-0.0 size=N/A time=00:15:26.00 bitrate=N/A speed=18.5x    frame=22420 fps=443 q=-0.0 size=N/A time=00:15:35.10 bitrate=N/A speed=18.5x    frame=22633 fps=443 q=-0.0 size=N/A time=00:15:43.98 bitrate=N/A speed=18.5x    frame=22910 fps=444 q=-0.0 size=N/A time=00:15:55.53 bitrate=N/A speed=18.5x    frame=23163 fps=444 q=-0.0 size=N/A time=00:16:06.09 bitrate=N/A speed=18.5x    frame=23352 fps=444 q=-0.0 size=N/A time=00:16:13.97 bitrate=N/A speed=18.5x    frame=23566 fps=443 q=-0.0 size=N/A time=00:16:22.89 bitrate=N/A speed=18.5x    frame=23803 fps=443 q=-0.0 size=N/A time=00:16:32.78 bitrate=N/A speed=18.5x    frame=24044 fps=444 q=-0.0 size=N/A time=00:16:42.83 bitrate=N/A speed=18.5x    frame=24280 fps=444 q=-0.0 size=N/A time=00:16:52.67 bitrate=N/A speed=18.5x    frame=24500 fps=444 q=-0.0 size=N/A time=00:17:01.85 bitrate=N/A speed=18.5x    frame=24751 fps=444 q=-0.0 size=N/A time=00:17:12.32 bitrate=N/A speed=18.5x    frame=25005 fps=444 q=-0.0 size=N/A time=00:17:22.91 bitrate=N/A speed=18.5x    frame=25204 fps=444 q=-0.0 size=N/A time=00:17:31.21 bitrate=N/A speed=18.5x    frame=25439 fps=444 q=-0.0 size=N/A time=00:17:41.01 bitrate=N/A speed=18.5x    frame=25692 fps=444 q=-0.0 size=N/A time=00:17:51.57 bitrate=N/A speed=18.5x    frame=25956 fps=445 q=-0.0 size=N/A time=00:18:02.58 bitrate=N/A speed=18.6x    frame=26222 fps=446 q=-0.0 size=N/A time=00:18:13.67 bitrate=N/A speed=18.6x    frame=26486 fps=446 q=-0.0 size=N/A time=00:18:24.68 bitrate=N/A speed=18.6x    frame=26745 fps=447 q=-0.0 size=N/A time=00:18:35.48 bitrate=N/A speed=18.6x    frame=26995 fps=447 q=-0.0 size=N/A time=00:18:45.91 bitrate=N/A speed=18.6x    frame=27229 fps=447 q=-0.0 size=N/A time=00:18:55.67 bitrate=N/A speed=18.6x    frame=27466 fps=447 q=-0.0 size=N/A time=00:19:05.56 bitrate=N/A speed=18.7x    frame=27642 fps=446 q=-0.0 size=N/A time=00:19:12.90 bitrate=N/A speed=18.6x    frame=27891 fps=447 q=-0.0 size=N/A time=00:19:23.28 bitrate=N/A speed=18.6x    frame=28135 fps=447 q=-0.0 size=N/A time=00:19:33.46 bitrate=N/A speed=18.6x    frame=28382 fps=447 q=-0.0 size=N/A time=00:19:43.76 bitrate=N/A speed=18.6x    frame=28633 fps=447 q=-0.0 size=N/A time=00:19:54.23 bitrate=N/A speed=18.7x    frame=28868 fps=447 q=-0.0 size=N/A time=00:20:04.03 bitrate=N/A speed=18.7x    frame=29125 fps=448 q=-0.0 size=N/A time=00:20:14.75 bitrate=N/A speed=18.7x    frame=29376 fps=448 q=-0.0 size=N/A time=00:20:25.22 bitrate=N/A speed=18.7x    frame=29600 fps=448 q=-0.0 size=N/A time=00:20:34.56 bitrate=N/A speed=18.7x    frame=29865 fps=449 q=-0.0 size=N/A time=00:20:45.61 bitrate=N/A speed=18.7x    frame=30122 fps=449 q=-0.0 size=N/A time=00:20:56.33 bitrate=N/A speed=18.7x    frame=30369 fps=449 q=-0.0 size=N/A time=00:21:06.64 bitrate=N/A speed=18.7x    frame=30624 fps=449 q=-0.0 size=N/A time=00:21:17.27 bitrate=N/A speed=18.7x    frame=30851 fps=449 q=-0.0 size=N/A time=00:21:26.74 bitrate=N/A speed=18.7x    frame=31055 fps=449 q=-0.0 size=N/A time=00:21:35.25 bitrate=N/A speed=18.7x    frame=31291 fps=449 q=-0.0 size=N/A time=00:21:45.09 bitrate=N/A speed=18.7x    frame=31513 fps=449 q=-0.0 size=N/A time=00:21:54.35 bitrate=N/A speed=18.7x    frame=31752 fps=449 q=-0.0 size=N/A time=00:22:04.32 bitrate=N/A speed=18.7x    frame=31996 fps=449 q=-0.0 size=N/A time=00:22:14.49 bitrate=N/A speed=18.7x    frame=32241 fps=449 q=-0.0 size=N/A time=00:22:24.71 bitrate=N/A speed=18.7x    frame=32479 fps=449 q=-0.0 size=N/A time=00:22:34.64 bitrate=N/A speed=18.7x    frame=32702 fps=449 q=-0.0 size=N/A time=00:22:43.94 bitrate=N/A speed=18.7x    frame=32907 fps=449 q=-0.0 size=N/A time=00:22:52.49 bitrate=N/A speed=18.7x    frame=33107 fps=449 q=-0.0 size=N/A time=00:23:00.83 bitrate=N/A speed=18.7x    frame=33308 fps=448 q=-0.0 size=N/A time=00:23:09.22 bitrate=N/A speed=18.7x    frame=33494 fps=448 q=-0.0 size=N/A time=00:23:16.97 bitrate=N/A speed=18.7x    frame=33699 fps=447 q=-0.0 size=N/A time=00:23:25.52 bitrate=N/A speed=18.7x    frame=33871 fps=446 q=-0.0 size=N/A time=00:23:32.70 bitrate=N/A speed=18.6x    frame=34078 fps=446 q=-0.0 size=N/A time=00:23:41.33 bitrate=N/A speed=18.6x    frame=34268 fps=446 q=-0.0 size=N/A time=00:23:49.26 bitrate=N/A speed=18.6x    [Parsed_psnr_10 @ 000001cc934daa00] PSNR y:49.629983 u:50.241673 v:50.240482 average:49.824281 min:42.745367 max:inf
[out#0/null @ 000001cc912743c0] video:14799KiB audio:269364KiB subtitle:0KiB other streams:0KiB global headers:0KiB muxing overhead: unknown
frame=34441 fps=445 q=-0.0 Lsize=N/A time=00:23:56.47 bitrate=N/A speed=18.6x    
